<svg xmlns="http://www.w3.org/2000/svg" xml:space="preserve"
     fill="#CED0D6" height="64px" width="64px" viewBox="0 0 489.542 489.542">
<g>
	<g>
		<g>
			<path d="M486.988,267.671c0,0-12.5-14.8-18.7-14.8h-61.4v-26.4h-323.9v26.4h-61.4c-2.3,0-5.1,1.2-6.6,2.7l-12.1,12.1
				c-3.9,3.9-3.8,9.6,0,13.6c3,3.2,9.6,4,13.2,0l9.3-9.3h57.5v175.4c0,19.1,15.6,34.6,34.6,34.6h254.3c19.1,0,34.6-15.6,34.6-34.6
				v-175.4h57.5l9.3,9.3c2.3,2.8,9,4.3,13.2,0C490.488,277.471,490.488,271.571,486.988,267.671z"/>
            <path d="M88.888,186.871l287.7-148.2l-33.8-31.1l-105,54c0.4-6.2-0.4-12.4-3.5-18.3c-8.6-16.3-28.8-22.6-44.7-14.4
				c-16.3,8.2-22.6,28.4-14,44.7c3.1,5.8,7.4,10.5,12.8,13.6l-105,54L88.888,186.871z"/>
            <path d="M306.588,180.271c-5.1,1.2-8.2,6.2-7,11.3c1.2,4.3,5.1,7.4,9.3,7.4c0.8,0,1.6,0,2.3-0.4c10.9-2.7,19.4-12.5,21.4-24.1
				c3.3-19.3-14.4-37-15.2-41.2c-1.7-5.6,11.7-30.7,11.7-30.7c2.3-4.7,0.4-10.5-4.3-12.8c-4.7-2.3-10.5-0.4-12.8,4.3
				c0,0-17.1,29.7-12.8,43.2c1.6,6.2,5.1,11.3,8.2,15.6C316.488,164.471,317.288,174.071,306.588,180.271z"/>
            <path d="M359.588,180.271c-5.1,1.2-8.2,6.2-7,11.3c1.2,4.3,5.1,7.4,9.3,7.4c0.8,0,1.6,0,2.3-0.4c10.9-2.7,19.4-12.5,21.4-24.1
				c3.3-19.3-14.4-37-15.2-41.2c-1.7-5.6,11.7-30.7,11.7-30.7c2.3-4.7,0.4-10.5-4.3-12.8c-4.7-2.3-10.5-0.4-12.8,4.3
				c0,0-17.1,29.7-12.8,43.2c1.6,6.2,5.1,11.3,8.2,15.6C369.488,164.471,370.288,174.071,359.588,180.271z"/>
		</g>
	</g>
</g>
</svg>